<?xml version="1.0" standalone="no"?>
<!DOCTYPE svg PUBLIC "-//W3C//DTD SVG 20010904//EN"
 "http://www.w3.org/TR/2001/REC-SVG-20010904/DTD/svg10.dtd">
<svg version="1.0" xmlns="http://www.w3.org/2000/svg"
 width="1024.000000pt" height="1024.000000pt" viewBox="0 0 1024.000000 1024.000000"
 preserveAspectRatio="xMidYMid meet">
<metadata>
Created by potrace 1.14, written by Peter Selinger 2001-2017
</metadata>
<g transform="translate(0.000000,1024.000000) scale(0.100000,-0.100000)"
fill="#000000" stroke="none">
<path d="M4915 8556 c-282 -56 -512 -244 -595 -486 -13 -36 -24 -66 -25 -68
-1 -2 -38 22 -80 53 -207 148 -385 203 -605 185 -398 -32 -643 -270 -667 -647
-3 -51 -7 -93 -8 -93 -1 0 -41 13 -88 30 -206 71 -360 62 -557 -32 -161 -77
-279 -227 -326 -413 -18 -75 -24 -243 -11 -332 l8 -53 -108 6 c-124 7 -163 -1
-243 -48 -37 -22 -64 -49 -85 -82 -27 -45 -30 -57 -30 -135 0 -79 3 -92 38
-159 20 -40 82 -140 137 -222 55 -81 100 -153 100 -159 0 -6 -20 -11 -47 -11
-53 0 -162 -22 -235 -46 -64 -21 -168 -91 -168 -113 0 -13 52 -38 218 -105
119 -49 303 -125 407 -169 105 -44 246 -104 315 -132 345 -145 788 -376 1066
-557 464 -302 870 -726 1095 -1145 19 -35 37 -63 40 -63 8 0 50 132 88 280 28
109 79 354 135 651 96 505 341 836 771 1043 104 50 314 122 465 161 255 64
330 95 365 149 41 62 -34 98 -298 142 -206 35 -319 67 -394 111 l-45 26 -859
-7 -859 -8 0 55 c0 229 122 532 299 745 85 101 280 251 416 320 215 107 517
149 756 102 288 -55 475 -154 674 -354 227 -229 342 -475 371 -793 l7 -73 -39
-2 c-21 -1 -68 -1 -104 0 l-65 1 50 -10 c217 -42 267 -54 320 -78 73 -34 111
-71 126 -122 11 -34 9 -44 -15 -93 -49 -99 -134 -155 -347 -226 -300 -101
-445 -220 -565 -465 -65 -133 -100 -244 -131 -415 -21 -118 -24 -519 -5 -685
22 -187 77 -435 101 -450 5 -2 37 42 71 99 131 222 255 382 453 585 406 415
980 768 1792 1104 397 164 701 288 802 327 46 17 85 36 89 41 8 14 -51 66
-105 93 -72 36 -137 54 -249 70 -57 8 -106 17 -109 19 -2 3 48 86 113 184 188
283 209 366 127 496 -31 49 -90 91 -159 113 -44 14 -75 16 -157 11 l-102 -7 0
168 c0 189 -11 244 -72 372 -113 236 -427 382 -702 326 -46 -10 -113 -28 -148
-42 -36 -13 -69 -24 -73 -24 -4 0 -10 44 -13 98 -13 247 -135 436 -357 551
-109 57 -204 82 -341 88 -220 11 -417 -56 -591 -199 -25 -21 -50 -38 -55 -38
-6 0 -13 16 -16 36 -10 61 -85 198 -143 262 -107 119 -245 204 -395 243 -108
27 -321 35 -424 15z m465 -221 c25 -30 -16 -79 -46 -54 -15 12 -19 51 -7 62
11 12 40 8 53 -8z m-640 -30 c15 -19 4 -52 -21 -60 -38 -12 -65 35 -37 63 16
16 43 15 58 -3z m348 -227 c17 -17 15 -58 -4 -65 -8 -3 -23 1 -32 10 -13 13
-13 21 -4 42 13 28 22 31 40 13z m-1126 -85 c22 -20 23 -31 1 -55 -22 -24 -49
-23 -67 4 -15 20 -14 24 6 45 26 27 35 28 60 6z m2256 -45 c4 -35 -29 -56 -52
-32 -18 17 -19 24 -10 49 4 10 16 15 33 13 20 -2 27 -9 29 -30z m-2568 -45 c0
-135 128 -253 273 -253 33 0 38 -2 27 -15 -21 -25 -113 -65 -151 -65 -84 0
-169 53 -210 132 -34 67 -21 184 25 231 28 27 36 20 36 -30z m3252 0 c22 -20
23 -41 1 -65 -22 -24 -35 -23 -64 8 l-24 26 28 24 c33 29 35 29 59 7z m-3594
-15 c19 -19 14 -56 -8 -63 -24 -8 -50 10 -50 34 0 19 19 41 35 41 6 0 16 -5
23 -12z m1932 -23 c20 -24 -3 -67 -33 -63 -25 3 -35 41 -17 64 16 18 34 18 50
-1z m1198 -147 c23 -120 41 -141 135 -153 26 -3 47 -11 47 -17 0 -21 -68 -78
-93 -78 -42 0 -65 -30 -83 -105 -23 -97 -24 -99 -30 -92 -3 3 -12 33 -20 66
-8 34 -21 75 -29 91 -14 28 -21 32 -77 44 -25 6 -88 62 -88 79 0 4 15 7 33 7
58 0 106 19 121 48 7 15 24 62 36 105 13 43 26 74 30 70 4 -4 12 -33 18 -65z
m-1650 -100 c-4 -26 -30 -43 -52 -35 -21 8 -21 53 1 66 25 13 55 -5 51 -31z
m920 -8 c28 -37 28 -39 -4 -73 l-26 -28 -27 23 c-14 12 -30 26 -35 30 -9 7 50
78 64 78 3 0 16 -13 28 -30z m-1416 -67 c24 -22 23 -49 -4 -67 -19 -13 -25
-14 -43 -2 -27 18 -31 43 -9 67 21 23 32 24 56 2z m-547 -168 c0 -25 -4 -30
-25 -30 -19 0 -26 6 -28 24 -4 25 13 43 38 38 9 -1 15 -13 15 -32z m3351 -86
c19 -22 13 -43 -18 -63 -36 -22 -64 37 -32 68 20 21 27 20 50 -5z m701 -1 c29
-27 29 -39 -2 -68 l-25 -23 -25 23 c-30 28 -30 30 -4 64 25 32 27 32 56 4z
m-5392 -39 c14 -43 -45 -66 -61 -24 -8 19 13 45 37 45 10 0 21 -10 24 -21z
m843 9 c18 -18 15 -43 -8 -63 -19 -17 -21 -17 -40 0 -32 29 -20 75 20 75 9 0
21 -5 28 -12z m2880 -34 c4 -29 -23 -51 -43 -34 -16 13 -20 42 -8 54 14 14 48
1 51 -20z m-2143 -64 c7 -23 -10 -50 -30 -50 -20 0 -37 27 -30 50 4 13 15 20
30 20 15 0 26 -7 30 -20z m-1325 -23 c0 -13 11 -46 25 -74 19 -38 35 -54 65
-68 23 -10 39 -23 37 -29 -2 -6 -21 -21 -42 -33 -45 -25 -53 -38 -76 -118 -9
-33 -19 -53 -22 -45 -3 8 -13 38 -22 65 -20 64 -31 77 -83 104 -23 12 -42 23
-42 26 0 2 22 16 49 30 50 28 74 63 86 129 8 40 25 49 25 13z m4450 -62 c0 -6
-11 -22 -25 -35 l-26 -24 -24 29 -23 30 26 27 26 28 23 -22 c13 -12 23 -27 23
-33z m449 -106 c2 -45 31 -127 56 -157 30 -36 126 -69 225 -78 75 -7 90 -18
38 -29 -62 -13 -184 -65 -225 -95 -52 -38 -73 -82 -93 -195 l-17 -90 -8 55
c-15 106 -42 175 -84 213 -51 46 -77 59 -184 92 -48 14 -85 30 -83 34 3 5 36
11 73 14 88 8 165 31 201 62 36 31 56 77 72 175 11 60 15 70 21 50 4 -14 7
-37 8 -51z m-4090 -31 c17 -52 43 -81 90 -103 23 -10 41 -24 41 -30 0 -7 -22
-22 -50 -34 -52 -22 -72 -48 -85 -108 -6 -30 -25 -47 -25 -22 0 6 -9 32 -21
58 -17 40 -28 51 -70 70 -27 13 -49 28 -49 34 0 7 22 24 49 39 43 24 51 34 66
80 27 83 33 84 54 16z m3150 23 l20 -28 -30 -29 -29 -28 -27 26 -26 26 22 31
c28 38 44 39 70 2z m-3765 -384 c21 -16 18 -45 -6 -61 -14 -8 -22 -7 -35 6
-14 14 -15 22 -5 43 13 28 21 30 46 12z m-647 -179 c30 -28 29 -38 -5 -72
l-29 -27 -26 34 -26 34 27 26 c32 32 30 32 59 5z m5631 -17 c8 -4 12 -19 10
-32 -2 -18 -9 -24 -28 -24 -28 0 -39 27 -20 50 14 17 20 18 38 6z m-915 -29
c31 -32 28 -52 -8 -76 -33 -22 -41 -20 -66 15 l-21 30 28 30 c15 16 31 29 34
29 3 0 18 -13 33 -28z m-3483 -57 c19 -23 4 -67 -22 -63 -34 5 -46 33 -24 57
23 25 30 26 46 6z m4794 -62 c-20 -32 -41 -39 -63 -19 -27 24 -26 41 0 67 l21
21 27 -26 c20 -21 24 -30 15 -43z m-5270 -16 c96 -44 196 -157 211 -240 9 -46
22 -55 41 -28 21 30 82 59 140 66 37 5 63 2 106 -15 67 -25 104 -64 119 -126
11 -42 13 -44 50 -44 96 0 179 -78 179 -170 l0 -30 -847 2 -848 3 -3 24 c-5
33 24 104 56 136 50 50 119 78 193 77 l66 0 6 49 c7 60 57 156 108 209 45 46
117 90 178 107 68 19 179 10 245 -20z m4634 -237 c24 -11 57 -29 73 -41 40
-28 87 -114 95 -171 6 -44 7 -46 31 -37 43 16 150 11 191 -10 76 -39 122 -109
122 -185 0 -54 0 -55 -32 -61 -18 -3 -343 -4 -723 -3 l-690 3 1 37 c3 81 87
157 175 158 35 0 37 2 42 41 9 70 84 129 165 129 46 0 100 -16 125 -38 20 -18
18 -20 46 40 61 128 250 197 379 138z m-3440 -122 c17 -17 15 -38 -5 -60 -22
-24 -39 -23 -58 6 -13 19 -14 29 -5 45 12 23 49 28 68 9z m1120 -50 c18 -18
15 -43 -8 -63 -19 -17 -21 -17 -40 0 -32 29 -20 75 20 75 9 0 21 -5 28 -12z
m-1009 -375 c7 -15 15 -57 18 -93 5 -56 2 -75 -22 -130 -15 -36 -29 -76 -32
-90 -5 -24 -4 -23 15 5 27 42 111 117 125 112 17 -6 10 -118 -10 -181 -18 -55
-86 -131 -127 -142 -24 -6 -26 -11 -26 -61 0 -33 4 -52 10 -48 6 3 10 12 10
18 0 15 93 106 132 130 52 32 61 24 55 -43 -5 -62 -33 -127 -70 -168 -27 -29
-89 -62 -117 -62 -19 0 -20 -6 -20 -99 0 -135 -18 -142 -22 -9 l-3 103 -46 22
c-87 41 -153 129 -168 224 -11 70 -1 79 52 51 62 -33 124 -100 147 -158 l19
-49 1 83 c0 45 -4 82 -8 82 -18 0 -93 74 -117 114 -45 77 -59 226 -21 226 41
0 146 -149 146 -207 0 -13 5 -23 10 -23 19 0 11 99 -12 143 -39 75 -28 199 24
265 17 20 44 14 57 -15z m2031 -85 c11 -61 -4 -148 -37 -211 -15 -29 -15 -30
9 -23 39 11 136 19 154 12 15 -6 15 -8 -2 -27 -29 -32 -85 -57 -157 -69 -60
-11 -67 -14 -76 -42 -6 -17 -11 -32 -11 -33 0 -2 34 8 75 21 86 27 115 30 115
11 0 -34 -103 -99 -177 -112 -41 -6 -45 -11 -67 -77 -7 -24 -1 -23 68 12 62
32 126 40 126 16 0 -34 -86 -93 -166 -115 -48 -13 -57 -29 -74 -138 -7 -40
-16 -73 -21 -73 -12 0 -12 0 8 112 l16 97 -47 51 c-64 68 -106 160 -73 160 22
0 97 -61 113 -92 18 -34 28 -29 41 22 9 32 6 39 -28 80 -58 69 -78 140 -40
140 28 0 72 -39 89 -79 l15 -36 13 30 c19 43 17 52 -15 93 -35 44 -59 118 -44
133 7 7 26 -8 61 -47 29 -32 55 -54 59 -50 5 4 11 56 14 114 6 110 26 199 41
184 4 -4 13 -33 18 -64z m-2783 -174 c12 -19 11 -24 -6 -45 -16 -20 -23 -22
-38 -13 -22 14 -29 50 -12 70 16 19 38 14 56 -12z"/>
<path d="M901 2304 c-17 -14 -31 -31 -31 -36 0 -6 35 -60 78 -120 l77 -109
375 6 c1212 19 2426 35 2767 36 l392 0 75 -65 c110 -96 280 -175 410 -191 68
-9 132 5 246 53 106 44 177 89 247 155 l54 50 1287 -13 c708 -7 1514 -16 1792
-19 278 -3 518 -4 534 -2 22 3 41 21 87 84 l58 79 -16 32 c-25 51 -64 86 -94
86 -16 0 -32 -6 -36 -13 -4 -8 -21 -22 -37 -33 -29 -18 -68 -19 -1315 -16
-1559 3 -2155 9 -2283 24 -94 11 -100 10 -143 -12 -28 -15 -48 -32 -51 -47 -8
-31 -108 -121 -164 -147 -64 -30 -205 -29 -272 1 -55 25 -127 89 -152 135 -26
49 -107 82 -178 74 -147 -18 -3499 -38 -3548 -21 -14 4 -42 19 -62 31 -48 30
-59 30 -97 -2z"/>
</g>
</svg>
